<?xml version="1.0" encoding="UTF-8"?>
<svg id="Layer_1" data-name="Layer 1" xmlns="http://www.w3.org/2000/svg" viewBox="0 0 238.53 346.44">
  <defs>
    <style>
      .cls-1 {
        fill: #f0efef;
      }

      .cls-1, .cls-2 {
        stroke-width: 0px;
      }

      .cls-2 {
        fill: #888;
      }

      .cls-3 {
        fill: none;
        stroke: #f0efef;
        stroke-width: 2.08px;
      }
    </style>
  </defs>
  <path class="cls-1" d="m50.61,159.77c0-16.61,0-33.22,0-49.83,0-.7-.19-1.17-.72-1.68-3.04-2.94-6.03-5.94-9.03-8.93-1.02-1.02-1.02-1.48-.14-2.62,2.73-3.55,5.45-7.11,8.2-10.64,2.64-3.38,5.33-6.73,7.99-10.09.19-.24.36-.48.59-.79-.49-.16-.88-.3-1.42-.48.67-.7,1.24-1.34,1.86-1.92,4.77-4.54,8.96-9.59,12.94-14.82.22-.29.18-.76.3-1.13.1-.31.2-.66.41-.9,3.66-4.18,7.34-8.35,11.06-12.57-.43-.41-.67-.63-1.18-1.12.66-.54,1.38-1,1.94-1.61,2.58-2.82,5.4-5.49,7.58-8.6,1.6-2.28,3.44-4.3,5.15-6.46,1.76-2.22,3.51-4.44,5.27-6.66.4-.51.8-1.04,1.18-1.56.24-.33.66-.67.04-1.07-.05-.03.08-.51.24-.66,5.13-5.03,10.28-10.05,15.43-15.06.83-.81,1.18-.74,2.01.07,3,2.94,6.03,5.85,9.04,8.78,2.12,2.06,4.23,4.12,6.34,6.2.14.14.32.46.27.52-.57.69.05,1.08.38,1.5,3.26,4.05,6.55,8.06,9.78,12.13,1.06,1.33,1.83,2.89,2.94,4.17,2.34,2.7,4.81,5.28,7.22,7.93.16.17.33.57.25.66-.48.56-.06.95.24,1.31,3.32,3.99,6.66,7.97,9.98,11.96.28.34.42.79.63,1.18.23.44.4.91.68,1.3,4.18,5.67,8.66,11.08,13.85,15.86.13.12.24.28.39.45-.33.17-.62.32-1.05.54,6.05,7.81,12.06,15.56,18.13,23.41-.31.2-.59.38-.86.56-.83.57-1.74,1.06-2.47,1.75-2.62,2.48-5.17,5.04-7.75,7.56-.18.17-.34.41-.55.5-1.19.45-1.13,1.41-1.13,2.43.02,16.14,0,32.29,0,48.43h-11.96v-3.26c0-20.28,0-40.56,0-60.83,0-.75-.14-1.37-.62-1.97-.99-1.24-1.9-2.54-2.86-3.8-12.92-17.21-25.84-34.42-38.76-51.62-3.98-5.3-7.95-10.59-11.93-15.89-.83-1.1-1.72-1.11-2.53-.03-.83,1.09-1.65,2.18-2.47,3.28-17.44,23.22-34.89,46.45-52.34,69.67-.43.58-.63,1.14-.63,1.87.02,20.87,0,41.74,0,62.61h-11.96v-.03Z"/>
  <path class="cls-1" d="m118.07,159.77h-1.68c-.05-2.05-.14-4.1-.15-6.15,0-17.91,0-35.82-.02-53.73,0-.57-.24-1.21-.57-1.68-.67-.97-1.47-1.84-2.21-2.77-6.12-7.73-12.23-15.46-18.35-23.19-.18-.23-.37-.45-.58-.71-7.63,9.85-15.17,19.58-22.69,29.29-1.09-.75-2-1.36-3.03-2.07-.04.48-.09.75-.09,1.02,0,16.01-.02,32.03-.02,48.04,0,3.98.03,7.96.04,11.94h-1.68c0-19.16-.02-38.32,0-57.48,0-5.7-.62-3.85,2.77-8.37,7.63-10.17,15.26-20.36,22.9-30.53,7.32-9.75,14.65-19.49,21.97-29.24,1.38-1.83,2.73-3.68,4.16-5.61.34.38.66.67.91,1,.89,1.16,1.75,2.34,2.63,3.5,5.55,7.38,11.12,14.76,16.66,22.14,10.42,13.88,20.85,27.75,31.25,41.65.29.39.47.96.47,1.44,0,20.5,0,41-.02,61.49h-1.68c0-.28.04-.56.04-.84,0-8.06-.02-16.11-.03-24.17v-34.62c0-.44-.07-.87-.12-1.56-1.26.82-2.28,1.49-3.35,2.2-7.51-9.7-14.98-19.35-22.53-29.11-.2.27-.29.39-.38.51-6.78,8.6-13.55,17.2-20.36,25.77-.52.66-.74,1.27-.73,2.09.02,19.91.01,39.82.01,59.73h-1.87c.04-.33.12-.66.12-1,0-5.26-.03-10.51-.03-15.77,0-14.37,0-28.74-.03-43.11,0-.64-.25-1.28-.41-2.05.43-.51,1-1.16,1.54-1.83,3.23-4.03,6.45-8.06,9.67-12.09,4.48-5.61,8.96-11.23,13.44-16.85.87-1.09.82-1.31-.47-2.12-.81.74-1.67,1.46-2.44,2.26-.48.5-.71.39-1.07-.1-.91-1.23-1.85-2.42-2.79-3.62-5.81-7.42-11.62-14.84-17.42-22.26-.34-.43-.67-.87-1.04-1.36-7.38,9.31-14.68,18.54-22.06,27.85-.91-1.12-1.72-2.1-2.53-3.1-1.64,1.75-1.28,1.48-.16,2.89,2.15,2.7,4.36,5.36,6.52,8.05,6.01,7.49,12.01,14.98,17.88,22.31-.16.69-.39,1.25-.39,1.81-.02,18.63-.02,37.26-.02,55.89v4.22Z"/>
  <path class="cls-1" d="m74.9,159.77c-.08-15.33-.17-30.65-.24-45.98-.02-3.23.03-6.47,0-9.7,0-1.01.28-1.85.89-2.66,5.51-7.44,11-14.91,16.49-22.36.31-.42.62-.84,1.01-1.37,1.24,1.65,2.43,3.19,3.58,4.75,4.68,6.36,9.33,12.74,14.02,19.09.59.79.85,1.6.85,2.58.02,17.35.06,34.7.11,52.05,0,1.2.07,2.4.1,3.6h-1.68c-.06-5.83-.13-11.66-.19-17.52h-15.88v17.52h-1.49c-.05-5.56-.12-11.13-.13-16.69,0-.78-.22-.92-.93-.91-4.67.03-9.34.03-14.01,0-.7,0-.96.13-.96.92.04,5.22,0,10.45,0,15.67,0,.33.09.67.13,1h-1.68.01Zm19.14-45.15v25.59h1.46c4.45,0,8.9-.05,13.35,0,.9,0,1.09-.27,1.09-1.1-.05-5.25-.05-10.51-.08-15.76-.01-2.64-.03-5.28-.03-7.93,0-.43.02-.81-.59-.8-5.04.01-10.08,0-15.19,0h0Zm-1.79,25.57c.07-.22.1-.28.1-.34-.01-7.96-.02-15.92-.04-23.88,0-1.35,0-1.36-1.36-1.36-4.51,0-9.03.02-13.54-.02-.81,0-1.05.19-1.04,1.03.04,7.87.05,15.73.02,23.6,0,.82.29.98,1.03.97,4.64-.03,9.28,0,13.92,0h.92,0Zm9.73-47.75c-.25.41-.38.66-.55.88-2.33,3.07-4.69,6.12-7,9.2-.26.34-.44.83-.45,1.25-.04,2.7-.02,5.41-.02,8.11,0,.27.04.53.06.76h15.72c.03-.49.07-.92.07-1.35-.01-2.33.02-4.67-.08-6.99-.03-.72-.3-1.52-.7-2.13-.98-1.51-2.11-2.92-3.17-4.38-1.22-1.68-2.44-3.36-3.89-5.37v.02Zm-17.93.19c-.27.32-.45.51-.61.73-2.18,2.99-4.38,5.96-6.51,8.99-.4.57-.62,1.37-.63,2.07-.05,2.45.04,4.91.04,7.37,0,.67.18.91.9.9,4.55-.04,9.09-.02,13.64-.02h1.33c.08-.2.14-.28.14-.37,0-2.7.03-5.41-.03-8.11-.01-.51-.25-1.1-.57-1.52-2.09-2.79-4.22-5.54-6.35-8.3-.41-.54-.84-1.07-1.36-1.75h0Zm8.87-12.31c-.21.37-.32.63-.48.85-2.3,3.14-4.59,6.28-6.92,9.39-.44.59-.41.98.04,1.54,1.63,2,3.21,4.04,4.81,6.07.86,1.09,1.7,2.19,2.58,3.32.17-.15.28-.22.35-.31,2.44-3.11,4.87-6.22,7.31-9.32.36-.46.28-.8-.04-1.24-1.46-1.97-2.88-3.98-4.34-5.96-1.01-1.37-2.06-2.7-3.31-4.34Z"/>
  <path class="cls-1" d="m126.48,159.77c0-5.72-.01-11.44-.03-17.16-.03-12.84-.07-25.68-.12-38.52,0-.94.24-1.72.81-2.49,5.76-7.8,11.49-15.63,17.23-23.45.09-.12.21-.22.38-.4,2.11,2.83,4.21,5.6,6.26,8.41,3.8,5.19,7.59,10.39,11.34,15.62.41.57.72,1.35.72,2.03.1,17.97.15,35.94.2,53.92,0,.68,0,1.37.02,2.05h-1.68c0-5.53-.05-11.07-.02-16.6,0-.81-.26-.99-1-.98-4.36.02-8.71,0-13.07,0h-1.97v17.58h-1.49v-17.59h-15.05c-.43,0-.87-.1-.87.61.03,5.66.03,11.31.03,16.97h-1.69Zm17.48-19.59c.03-.22.06-.34.06-.46,0-8.11,0-16.22.03-24.33,0-.76-.42-.76-.95-.76-4.76,0-9.52,0-14.28-.02-.67,0-.83.24-.82.88.05,1.77.02,3.54.03,5.31.03,6.18.07,12.37.09,18.55,0,.47-.02.85.65.85,5.04-.02,10.07,0,15.19,0v-.02Zm17.51-25.48h-15.74c-.03.18-.07.33-.07.48-.02,8.05-.03,16.1-.07,24.16,0,.72.28.87.95.86,3.27-.03,6.54,0,9.81,0h5.12v-25.5h0Zm-17.43-2c0-2.73-.03-5.33,0-7.94,0-.93-.28-1.66-.85-2.38-2.31-2.97-4.58-5.96-6.87-8.95-.18-.23-.39-.45-.76-.86-.2.31-.32.53-.46.73-2.21,3.04-4.45,6.06-6.61,9.14-.36.51-.53,1.26-.54,1.9-.05,2.3,0,4.6,0,6.9,0,1.46,0,1.45,1.45,1.45h14.63Zm17.33-.02c.04-.24.09-.42.09-.6,0-2.8.04-5.59,0-8.39,0-.37-.21-.78-.43-1.09-2.28-3.14-4.58-6.27-6.87-9.4-.13-.17-.22-.37-.34-.59-.33.31-.5.44-.63.61-2.44,3.18-4.88,6.36-7.3,9.55-.18.23-.31.56-.31.84,0,2.8,0,5.59.02,8.39,0,.52.21.69.73.68,4.97-.02,9.95-.01,15.03-.01h0Zm-16.6-32.18c-.32.34-.55.54-.73.78-2.25,3.05-4.46,6.13-6.75,9.15-.56.73-.47,1.18.05,1.84,2.29,2.87,4.53,5.77,6.79,8.66.15.19.24.43.35.62.3-.22.39-.26.44-.33,2.47-3.16,4.95-6.3,7.39-9.49.16-.21.11-.78-.06-1.02-1.17-1.68-2.39-3.33-3.61-4.98-1.25-1.7-2.51-3.39-3.86-5.22h-.01Z"/>
  <path class="cls-1" d="m65.75,159.77h-1.68c.03-1.06.08-2.11.08-3.17,0-19.48,0-38.97,0-58.45,0-.98.25-1.81.85-2.59,1.91-2.49,3.78-5.01,5.67-7.53,10-13.3,19.99-26.6,29.99-39.9,5.79-7.71,11.58-15.42,17.37-23.12.32-.43.73-.8,1.12-1.22,2.14,2.8,4.21,5.48,6.24,8.18,7.91,10.55,15.8,21.11,23.7,31.67,8.03,10.73,16.07,21.45,24.09,32.2.34.46.58,1.12.58,1.69.03,19.56.02,39.13.02,58.69v3.54h-1.68c0-20.38-.02-40.75,0-61.13,0-1.1-.29-1.96-.94-2.82-15.19-20.17-30.37-40.36-45.55-60.54-2.27-3.02-4.51-6.07-6.74-9.07-.16.27-.33.67-.59,1.01-1.02,1.37-2.07,2.73-3.1,4.09-9.09,12.07-18.19,24.15-27.28,36.23-6.96,9.24-13.9,18.5-20.89,27.72-.89,1.17-1.29,2.36-1.29,3.85.04,20.22.02,40.44.02,60.66h.02Z"/>
  <path class="cls-1" d="m189.68,158.94v-10.29h23.07v10.29h-23.07,0Z"/>
  <path class="cls-1" d="m33.36,109.07v10.31H10.34v-10.31h23.03-.01Z"/>
  <path class="cls-1" d="m203.15,119.39v-10.33h23.04v10.33h-23.04,0Z"/>
  <path class="cls-1" d="m23.78,121.73h23v10.35h-23v-10.35Z"/>
  <path class="cls-1" d="m212.78,121.78v10.29h-23.07v-10.29h23.07,0Z"/>
  <path class="cls-1" d="m33.35,145.53H10.31v-10.32h23.05v10.32h0Z"/>
  <path class="cls-1" d="m226.23,135.22v10.28h-23.06v-10.28h23.06Z"/>
  <path class="cls-1" d="m46.79,158.99h-23.01v-10.35h23.01v10.35Z"/>
  <path class="cls-1" d="m46.81,119.4h-11.09v-10.32h11.09v10.32Z"/>
  <path class="cls-1" d="m200.77,119.42h-11.05v-10.35h11.05v10.35Z"/>
  <path class="cls-1" d="m46.84,135.22v10.29h-11.11v-10.29h11.11Z"/>
  <path class="cls-1" d="m189.7,135.19h11.09v10.32h-11.09v-10.32h0Z"/>
  <path class="cls-1" d="m118.74,90.51c-.89-1.14-1.72-2.17-2.54-3.22-4.83-6.25-9.65-12.5-14.51-18.73-.59-.75-.55-1.2.05-1.95,4.22-5.34,8.38-10.73,12.57-16.1,1.45-1.86,2.95-3.68,4.47-5.58.18.17.35.29.48.44,5.63,7.24,11.26,14.48,16.9,21.72.34.43.28.72-.04,1.13-4.19,5.37-8.35,10.76-12.52,16.14-1.39,1.79-2.78,3.59-4.18,5.38-.18.24-.39.45-.67.77h-.01Zm.05-22.08c-2.47,3.15-4.86,6.16-7.21,9.22-.16.21-.1.78.08,1.02,1.37,1.84,2.8,3.65,4.21,5.46.92,1.18,1.86,2.36,2.81,3.57.27-.25.46-.38.59-.54,2.28-2.91,4.54-5.83,6.83-8.74.36-.45.19-.77-.12-1.14-1.07-1.29-2.11-2.61-3.17-3.91-1.31-1.61-2.62-3.22-4.02-4.93h0Zm8.72,8.08c2.25-2.85,4.46-5.62,6.61-8.42.16-.21.03-.84-.18-1.12-1.3-1.75-2.65-3.45-3.99-5.17-.99-1.26-1.98-2.52-3.04-3.88-2.3,2.97-4.53,5.84-6.73,8.74-.14.18-.08.66.07.88.48.69,1.04,1.31,1.57,1.97,1.88,2.32,3.75,4.63,5.68,7.01h.01Zm-16.98-18.29c-.37.45-.69.82-.99,1.21-1.88,2.4-3.73,4.83-5.65,7.19-.62.77-.63,1.3-.01,2.08,2.02,2.53,3.96,5.11,5.93,7.67.09.11.24.17.4.29,2.39-3.08,4.77-6.1,7.09-9.17.16-.21.03-.82-.17-1.09-1.03-1.36-2.13-2.68-3.21-4.01-1.11-1.37-2.23-2.74-3.4-4.17h0Zm8.19,7.44c2.38-3,4.65-5.84,6.87-8.71.14-.18.09-.68-.07-.88-2-2.62-4.04-5.21-6.06-7.81-.42-.54-.81-.6-1.25-.02-2.06,2.69-4.14,5.37-6.18,8.08-.16.22-.18.77-.02.98,2.19,2.79,4.42,5.54,6.71,8.37h0Z"/>
  <line class="cls-3" x1="238.53" y1="161.78" y2="161.78"/>
  <g>
    <path class="cls-1" d="m58.05,175.04l1.04-1.59v-4.5h-3.09v23.71l1.04,1.59h-4.31l1.04-1.59v-23.71h-3.13v4.5l1.09,1.59h-3.27v-7.72h12.85v7.72h-3.27Z"/>
    <path class="cls-1" d="m71.36,194.25l1.05-1.59v-12.22h-6.45v12.22l1.04,1.59h-4.31l1.04-1.59v-23.71l-1.04-1.63h4.31l-1.04,1.63v9.63h6.45v-9.63l-1.05-1.63h4.31l-1.04,1.63v23.71l1.04,1.59h-4.31Z"/>
    <path class="cls-1" d="m77.23,194.25l1.09-1.59v-23.71l-1.04-1.63h11.67l-1.04,1.59v4.54l1.04,1.59h-4.31l1.04-1.59v-4.5h-5.13v9.72h4.4l1.59-1.09v4l-1.59-1.04h-4.4v12.12h5.63v-6.36l-1.04-1.59h4.31l-1.04,1.59v6.36l1.09,1.59h-12.26Z"/>
    <path class="cls-1" d="m108.16,194.25l1.04-1.59v-12.22h-6.45v12.22l1.04,1.59h-4.31l1.04-1.59v-23.71l-1.04-1.63h4.31l-1.04,1.63v9.63h6.45v-9.63l-1.04-1.63h4.31l-1.04,1.63v23.71l1.04,1.59h-4.31Z"/>
    <path class="cls-1" d="m114.02,194.25l1.04-1.59v-23.71l-1.04-1.63h4.31l-1.04,1.63v23.71l1.04,1.59h-4.31Z"/>
    <path class="cls-1" d="m127.47,175.04l1-1.54v-3.72c0-.5-.45-.82-.95-.82h-4.22c-.5,0-.91.32-.91.82v7.81c0,.5.18,1,.72,1h5.41c1.09,0,2.18.64,2.18,1.86v11.13c0,.77-.55,1.54-1.32,1.68l1.27,1h-10.49l1.32-1c-.86-.14-1.32-.91-1.32-1.68v-8.18h3.31l-1.09,1.63v6.77c0,.54.45.86.95.86h4.22c.5,0,.91-.36.91-.86v-10.26c0-.68-.54-1.09-1.14-1.09h-5.36c-1.09,0-1.82-.77-1.82-1.86v-8.54c0-.86.54-1.54,1.32-1.68l-1.32-1.04h10.54l-1.32,1.04c.86.14,1.32.82,1.32,1.68v5h-3.23Z"/>
    <path class="cls-1" d="m141.77,175.04l1.04-1.59v-4.5h-3.09v23.71l1.05,1.59h-4.32l1.05-1.59v-23.71h-3.13v4.5l1.09,1.59h-3.27v-7.72h12.85v7.72h-3.27Z"/>
    <path class="cls-1" d="m156.45,193.25l1.32,1h-10.49l1.32-1c-.86-.14-1.32-.91-1.32-1.68v-21.53c0-.86.45-1.54,1.32-1.68l-1.32-1.04h10.49l-1.32,1.04c.86.14,1.36.82,1.36,1.68v21.53c0,.77-.5,1.54-1.36,1.68Zm-.86-23.48c0-.5-.45-.86-.95-.86h-4.27c-.5,0-.86.36-.86.86v22.03c0,.5.36.86.86.86h4.27c.5,0,.95-.36.95-.86v-22.03Z"/>
    <path class="cls-1" d="m168.44,194.25l.95-1.59-3.77-9.67h-2.95v9.67l1.04,1.59h-4.31l1.04-1.59v-23.75l-1.04-1.59h11.53l-1.32,1.04c.86.14,1.36.91,1.36,1.68v10.17c0,1.86-1.36,2.72-3.04,2.77l4.5,11.26h-4Zm.32-24.48c0-.54-.45-.86-.95-.86h-5.13v12.58h5.13c.5,0,.95-.41.95-.95v-10.76Z"/>
    <path class="cls-1" d="m173.4,194.25l1.04-1.59v-23.71l-1.04-1.63h4.31l-1.04,1.63v23.71l1.04,1.59h-4.31Z"/>
    <path class="cls-1" d="m188.75,193.25l1.32,1h-10.54l1.31-1c-.86-.14-1.31-.91-1.31-1.68v-21.53c0-.86.45-1.54,1.31-1.68l-1.31-1.04h10.54l-1.32,1.04c.86.14,1.32.82,1.32,1.68v6.58h-3.36l1.14-1.68v-5.18c0-.54-.45-.86-.95-.86h-4.27c-.5,0-.86.36-.86.86v22.03c0,.5.36.82.86.82h4.27c.5,0,.95-.32.95-.82v-8.58l-1.09-1.59h3.31v9.95c0,.77-.46,1.54-1.32,1.68Z"/>
  </g>
  <line class="cls-3" x1="238.53" y1="199.78" y2="199.78"/>
  <g>
    <path class="cls-1" d="m1.27,261.21v-1.18c0-.46.24-.69.73-.69h10.62c.4,0,.66.05.78.16.12.1.18.41.18.93,0,.79-.04,1.27-.12,1.46-.08.19-.26.31-.54.35-.92.16-1.38.75-1.38,1.75v26.66c0,.56.33,1.01,1,1.33.43.21.69.39.78.55.09.16.13.44.13.84v.87c0,.47-.04.74-.13.8-.09.06-.32.09-.69.09H1.81c-.41,0-.62-.16-.62-.49,0-1.06.04-1.71.11-1.95.07-.24.33-.42.78-.55.8-.22,1.2-.64,1.2-1.26v-26.33c0-.62-.07-1.09-.22-1.41-.15-.32-.47-.58-.98-.79-.37-.16-.6-.31-.68-.43-.08-.13-.12-.37-.12-.72Z"/>
    <path class="cls-1" d="m24.78,279.4v11c0,.52.03.87.1,1.04.07.18.25.36.56.55.39.25.59.67.59,1.26,0,.86-.08,1.39-.23,1.59-.16.2-.44.3-.85.3h-9.37c-.53,0-.8-.38-.8-1.15s.02-1.22.07-1.43c.04-.21.19-.37.44-.45.81-.33,1.22-.96,1.22-1.91v-25.99c0-.96-.35-1.55-1.06-1.75-.35-.12-.58-.23-.66-.35-.09-.12-.13-.46-.13-1.04,0-1.15.31-1.72.93-1.72h12.27c2.44,0,4.62.92,6.53,2.75,1.92,1.83,2.87,4.3,2.87,7.39,0,4.39-2.24,7.26-6.72,8.61,4.1.9,6.14,3.5,6.14,7.79v5.28c0,.44.17.78.51,1,.4.27.6.67.6,1.22,0,.86-.05,1.37-.16,1.53-.1.16-.38.24-.82.24h-5.94c-.71,0-1.29-.4-1.75-1.21-.46-.81-.69-1.8-.69-2.98v-8.94c0-1.75-.88-2.62-2.64-2.62h-1Zm0-17.52v14.95h1.44c1.46,0,2.2-1.47,2.2-4.42v-7.14c0-1.24-.23-2.12-.7-2.63-.47-.51-1.19-.77-2.19-.77h-.75Z"/>
    <path class="cls-1" d="m50.8,258.75c2.17,0,4.05.73,5.64,2.19,1.59,1.46,2.89,3.53,3.89,6.22,1,2.69,1.51,6.14,1.51,10.36,0,5.06-.98,9.33-2.94,12.81-1.96,3.48-4.72,5.22-8.29,5.22s-6.06-1.7-8.01-5.1c-1.95-3.4-2.93-7.79-2.93-13.18s1-9.98,3.01-13.4c2-3.42,4.71-5.12,8.11-5.12Zm1.75,5.26c0-1.85-.6-2.77-1.8-2.77-.5,0-.93.23-1.29.69s-.53,1.02-.53,1.69v26.77c0,.9.18,1.59.53,2.05.35.46.78.7,1.26.7.55,0,.99-.26,1.32-.78.33-.52.5-1.1.5-1.73v-26.62Z"/>
    <path class="cls-1" d="m69.24,274.85v15.66c0,.65.37,1.14,1.11,1.46.62.28.93.68.93,1.2,0,1.08-.03,1.68-.08,1.8-.05.12-.27.18-.65.18h-5.88c-.3,0-.48-.11-.55-.34-.08-.23-.11-.8-.11-1.7,0-.42.2-.7.59-.87.76-.34,1.14-.72,1.14-1.15v-26.22c0-.63-.06-1.11-.18-1.43-.12-.32-.38-.58-.79-.79-.36-.18-.61-.37-.73-.58-.12-.21-.19-.6-.19-1.18,0-1.04.27-1.55.82-1.55h6.14l7.46,17.31v-12.76c0-.71-.36-1.21-1.09-1.51-.43-.19-.71-.41-.83-.65-.13-.24-.19-.72-.19-1.43,0-.44.04-.71.13-.81.09-.1.26-.14.51-.14h6.12c.34.04.51.53.51,1.46,0,.55-.03.89-.1,1.04-.07.15-.22.27-.45.38-.52.21-.84.41-.97.6-.13.19-.2.46-.2.8v31.52h-3.77l-8.7-20.3Z"/>
    <path class="cls-1" d="m105.66,277.14v13.46c0,.7.43,1.17,1.29,1.42.43.12.7.26.81.41.11.16.17.5.17,1.03,0,.83-.06,1.31-.19,1.46-.13.15-.43.22-.92.22h-10.14c-.56,0-.93-.11-1.1-.34-.17-.23-.26-.7-.26-1.41,0-.47.04-.77.12-.9.08-.13.32-.28.72-.45.55-.24.89-.44,1.02-.61.13-.17.2-.42.2-.77v-26.79c0-.39-.08-.68-.23-.89-.16-.21-.49-.42-1.01-.64-.37-.16-.55-.52-.55-1.09,0-.06,0-.39.02-.98.09-.62.44-.93,1.06-.93h13.84c.41,0,.7.07.86.2.16.13.29.46.38.98.02.09.04.21.07.38l1,4.92c.06.31.09.58.09.8,0,.47-.35.71-1.06.71-.95,0-1.54-.18-1.77-.53-.24-.35-.61-1.23-1.11-2.64-.31-.86-.62-1.43-.92-1.73-.3-.3-.77-.44-1.41-.44-.18,0-.5.02-.98.07v12.67h1.13c.59,0,1-.14,1.23-.41.23-.27.4-.74.5-1.41.13-.75.26-1.24.38-1.45.12-.21.61-.32,1.46-.32.59,0,.95.06,1.07.18.13.12.19.35.19.69v8.03c0,.34-.06.56-.18.66-.12.11-.5.16-1.13.16-.77,0-1.26-.13-1.46-.38-.2-.25-.35-.86-.45-1.84-.12-.99-.66-1.48-1.62-1.48h-1.13Z"/>
    <path class="cls-1" d="m115.04,259.35h9.6c.32,0,.53.07.62.21.09.14.13.57.13,1.3s-.21,1.2-.64,1.44c-.33.18-.54.36-.65.56-.11.19-.17.56-.17,1.11v24.86c0,.68.19,1.23.58,1.65.38.42.87.63,1.46.63.55,0,1.01-.24,1.4-.71.38-.47.58-1,.58-1.57v-24.84c0-.43-.04-.73-.12-.9-.08-.17-.29-.38-.61-.63-.5-.39-.76-.98-.76-1.79,0-.63.07-1,.21-1.13.14-.13.34-.19.61-.19h4.79c.53,0,.8.27.8.8v1.06c0,.47-.03.77-.09.9-.06.13-.23.24-.51.34-.69.24-1.04.72-1.04,1.44v24.2c0,2.29-.66,4.11-1.97,5.45-1.32,1.34-3.15,2.01-5.5,2.01-2.63,0-4.64-.71-6.02-2.13-1.38-1.42-2.07-3.47-2.07-6.15v-23.38c0-.62-.33-1.08-.98-1.38-.32-.15-.52-.28-.59-.41-.07-.13-.1-.4-.1-.81,0-.86.05-1.4.15-1.62.1-.22.4-.33.89-.33Z"/>
    <path class="cls-1" d="m144.25,279.4v11c0,.52.03.87.1,1.04.07.18.25.36.56.55.39.25.59.67.59,1.26,0,.86-.08,1.39-.23,1.59-.16.2-.44.3-.85.3h-9.36c-.53,0-.8-.38-.8-1.15s.02-1.22.07-1.43c.04-.21.19-.37.44-.45.82-.33,1.22-.96,1.22-1.91v-25.99c0-.96-.35-1.55-1.06-1.75-.36-.12-.58-.23-.67-.35-.09-.12-.13-.46-.13-1.04,0-1.15.31-1.72.93-1.72h12.27c2.44,0,4.62.92,6.53,2.75,1.91,1.83,2.87,4.3,2.87,7.39,0,4.39-2.24,7.26-6.72,8.61,4.1.9,6.14,3.5,6.14,7.79v5.28c0,.44.17.78.51,1,.4.27.6.67.6,1.22,0,.86-.05,1.37-.16,1.53-.1.16-.38.24-.82.24h-5.95c-.71,0-1.29-.4-1.75-1.21-.46-.81-.69-1.8-.69-2.98v-8.94c0-1.75-.88-2.62-2.64-2.62h-1Zm0-17.52v14.95h1.44c1.46,0,2.2-1.47,2.2-4.42v-7.14c0-1.24-.23-2.12-.7-2.63-.47-.51-1.19-.77-2.19-.77h-.75Z"/>
    <path class="cls-1" d="m164.11,274.85v15.66c0,.65.37,1.14,1.11,1.46.62.28.93.68.93,1.2,0,1.08-.03,1.68-.08,1.8-.05.12-.27.18-.65.18h-5.88c-.3,0-.48-.11-.55-.34-.08-.23-.11-.8-.11-1.7,0-.42.2-.7.59-.87.76-.34,1.14-.72,1.14-1.15v-26.22c0-.63-.06-1.11-.18-1.43-.12-.32-.38-.58-.79-.79-.36-.18-.61-.37-.74-.58-.12-.21-.19-.6-.19-1.18,0-1.04.27-1.55.82-1.55h6.13l7.47,17.31v-12.76c0-.71-.36-1.21-1.09-1.51-.43-.19-.71-.41-.83-.65-.13-.24-.19-.72-.19-1.43,0-.44.04-.71.13-.81.09-.1.26-.14.51-.14h6.12c.34.04.51.53.51,1.46,0,.55-.03.89-.1,1.04-.07.15-.22.27-.45.38-.52.21-.84.41-.98.6-.13.19-.2.46-.2.8v31.52h-3.77l-8.7-20.3Z"/>
    <path class="cls-1" d="m190.06,287.5h-5.53l-.26,2.04s-.02.11-.05.2c-.12.43-.19.82-.19,1.15,0,.53.35.99,1.04,1.35.37.19.59.39.68.6.09.21.13.55.13,1.02,0,.61-.03.97-.1,1.1-.07.12-.22.19-.47.19h-5.84c-.32,0-.49-.34-.49-1.02,0-.81.26-1.47.78-1.97.49-.46.77-.95.84-1.46l4.11-26.11c.07-.4.11-.75.11-1.04,0-.46-.32-.87-.96-1.22-.3-.18-.45-.57-.45-1.18,0-.81.04-1.32.13-1.51.09-.19.33-.29.71-.29h8.47c.52,0,.88.24,1.09.73.21.49.41,1.55.62,3.19.09.64.18,1.27.27,1.88l3.64,24.38c.18,1.18.61,2.08,1.31,2.71.19.16.32.29.38.39.06.09.09.39.09.87,0,.75-.05,1.22-.16,1.39-.1.17-.33.26-.66.26h-9.85c-.3,0-.44-.28-.44-.84,0-.71.04-1.15.11-1.33.07-.18.29-.38.64-.62.52-.33.77-.74.77-1.25s-.16-1.72-.48-3.61Zm-2.65-19.89l-2.51,17.34h4.93l-2.42-17.34Z"/>
    <path class="cls-1" d="m215.97,258.75h1.15c.27,0,.46.1.6.3.13.2.23.74.29,1.61l.51,7.14c.01.15.02.29.02.42,0,.52-.09.88-.27,1.09-.18.21-.53.31-1.06.31-.65,0-1.1-.17-1.35-.51-.25-.34-.5-1.15-.73-2.42-.61-3.22-1.47-4.83-2.6-4.83-.93,0-1.4,1.16-1.4,3.48v24.95c0,1.66.49,2.48,1.46,2.48,1.24,0,1.94-1.38,2.09-4.15.04-.8.2-1.35.46-1.66.27-.31.81-.47,1.64-.47.62,0,1.05.12,1.3.34.25.23.37.68.37,1.34,0,2.12-.64,3.87-1.91,5.27-1.27,1.4-2.85,2.1-4.75,2.1s-3.45-.58-4.84-1.75c-1.39-1.17-2.59-3.18-3.61-6.04-1.01-2.86-1.52-6.53-1.52-10.99,0-4.21.43-7.58,1.28-10.1.85-2.52,1.94-4.47,3.26-5.84,1.33-1.37,2.87-2.06,4.63-2.07,1.06,0,1.99.29,2.77.87.29.21.52.31.67.31.18,0,.43-.21.75-.62.28-.37.54-.56.78-.56Z"/>
    <path class="cls-1" d="m229.81,262.08v12.66h1.51c.41,0,.71-.09.91-.26.19-.18.34-.56.44-1.15.18-1.05.32-1.68.43-1.88.11-.21.28-.31.52-.31,1.17,0,1.83.05,1.99.15.15.09.23.47.23,1.12v7.39c0,.46-.07.76-.22.9-.15.14-.61.21-1.38.21-.5,0-.84-.09-1.01-.28-.17-.18-.33-.71-.5-1.56-.16-.79-.32-1.27-.48-1.44-.15-.18-.39-.27-.72-.27h-1.73v15.28h1.17c.73,0,1.22-.2,1.5-.61.27-.41.71-1.58,1.32-3.52.25-.81.51-1.35.77-1.6.27-.25.73-.38,1.4-.38.92,0,1.37.29,1.37.89,0,.18-.03.44-.09.78l-.82,5.04c-.15.92-.27,1.47-.36,1.65-.1.18-.4.28-.9.28h-14.79c-.37,0-.61-.09-.71-.26-.11-.17-.16-.66-.16-1.47,0-.52.27-.9.8-1.13.81-.34,1.22-.8,1.22-1.4v-27.66c-.02-.28-.35-.56-1-.84-.44-.19-.71-.38-.79-.55-.08-.18-.12-.61-.12-1.29,0-.58.04-.92.13-1.03.09-.11.35-.17.78-.17h14.15c.36,0,.61.06.78.18.16.12.29.4.38.84l1.13,5.72c.06.29.09.49.09.6,0,.4-.36.6-1.07.6-.8,0-1.34-.09-1.61-.28-.27-.18-.53-.65-.78-1.39-.46-1.33-.85-2.26-1.18-2.77-.33-.52-.7-.78-1.12-.78h-1.5Z"/>
  </g>
  <g>
    <path class="cls-1" d="m23.2,206.02h1.53c.35,0,.62.13.79.4.18.26.3.98.38,2.13l.68,9.47c.02.2.03.38.03.56,0,.69-.12,1.17-.35,1.44-.23.28-.71.41-1.41.41-.86,0-1.46-.23-1.79-.68-.33-.45-.66-1.52-.97-3.21-.8-4.27-1.95-6.41-3.44-6.41-1.23,0-1.85,1.54-1.85,4.62v33.09c0,2.2.65,3.29,1.94,3.29,1.65,0,2.57-1.83,2.76-5.5.06-1.06.26-1.79.62-2.21.35-.41,1.08-.62,2.18-.62.82,0,1.4.15,1.72.45.32.3.49.9.49,1.78,0,2.8-.84,5.13-2.53,6.99-1.69,1.85-3.78,2.78-6.29,2.78s-4.57-.77-6.41-2.32c-1.84-1.55-3.44-4.22-4.78-8.02-1.34-3.79-2.01-8.65-2.01-14.58,0-5.59.56-10.05,1.69-13.4,1.13-3.34,2.57-5.92,4.32-7.75,1.75-1.82,3.8-2.73,6.13-2.74,1.41,0,2.64.38,3.68,1.15.39.28.69.41.88.41.23,0,.57-.28,1-.82.37-.49.71-.73,1.03-.73Z"/>
    <path class="cls-1" d="m43.55,206.02c2.88,0,5.38.96,7.49,2.9,2.11,1.93,3.83,4.68,5.16,8.25,1.33,3.57,2,8.15,2,13.74,0,6.71-1.3,12.37-3.9,16.99-2.6,4.62-6.26,6.93-10.99,6.93s-8.03-2.25-10.62-6.76c-2.59-4.51-3.88-10.33-3.88-17.47s1.33-13.24,3.99-17.77c2.66-4.53,6.24-6.79,10.75-6.79Zm2.32,6.97c0-2.45-.79-3.68-2.38-3.68-.67,0-1.23.3-1.71.91-.47.61-.71,1.35-.71,2.24v35.5c0,1.2.24,2.1.71,2.72.47.62,1.03.93,1.68.93.73,0,1.31-.34,1.75-1.03.44-.69.66-1.45.66-2.29v-35.29Z"/>
    <path class="cls-1" d="m74.29,233.4v14.59c0,.69.04,1.14.13,1.38.09.24.33.48.74.74.52.33.78.89.78,1.68,0,1.14-.1,1.84-.31,2.1-.21.27-.58.4-1.13.4h-12.42c-.7,0-1.06-.51-1.06-1.53s.03-1.61.09-1.9c.06-.29.25-.49.59-.6,1.08-.43,1.62-1.28,1.62-2.53v-34.47c0-1.27-.47-2.05-1.41-2.32-.47-.16-.77-.31-.88-.47-.12-.15-.18-.61-.18-1.37,0-1.52.41-2.28,1.23-2.28h16.27c3.24,0,6.12,1.21,8.66,3.65,2.54,2.43,3.81,5.7,3.81,9.8,0,5.82-2.97,9.63-8.91,11.41,5.43,1.2,8.15,4.63,8.15,10.32v7c0,.59.22,1.03.68,1.32.53.35.79.89.79,1.62,0,1.14-.07,1.81-.21,2.03-.14.22-.5.32-1.09.32h-7.88c-.94,0-1.72-.53-2.32-1.6-.61-1.07-.91-2.39-.91-3.95v-11.85c0-2.31-1.17-3.47-3.5-3.47h-1.32Zm0-23.24v19.82h1.91c1.94,0,2.91-1.95,2.91-5.85v-9.47c0-1.65-.31-2.81-.92-3.49-.62-.68-1.58-1.01-2.9-1.01h-1Z"/>
    <path class="cls-1" d="m100.61,227.37v20.77c0,.86.49,1.51,1.47,1.94.83.37,1.24.9,1.24,1.59,0,1.43-.03,2.23-.1,2.38-.07.16-.36.23-.86.23h-7.8c-.39,0-.64-.15-.73-.46-.1-.3-.15-1.05-.15-2.25,0-.55.26-.93.78-1.15,1.01-.45,1.51-.96,1.51-1.53v-34.76c0-.84-.08-1.48-.23-1.9-.16-.42-.5-.77-1.05-1.04-.48-.24-.81-.49-.97-.77-.16-.27-.25-.79-.25-1.56,0-1.37.36-2.06,1.08-2.06h8.13l9.9,22.96v-16.93c0-.94-.48-1.61-1.44-2-.57-.26-.94-.54-1.1-.87-.17-.32-.25-.96-.25-1.9,0-.59.06-.95.18-1.07.12-.13.34-.19.68-.19h8.12c.45.06.68.71.68,1.94,0,.73-.04,1.19-.13,1.38-.09.2-.29.37-.6.5-.69.28-1.12.54-1.29.79-.18.25-.27.61-.27,1.06v41.79h-5l-11.53-26.91Z"/>
    <path class="cls-1" d="m139.61,220.72l-1.37-7.64c-.12-.72-.5-1.42-1.15-2.09-.43-.43-.65-.84-.65-1.23v-2.06c0-.59.28-.88.85-.88h12.04c.39,0,.64.1.75.29.11.2.16.64.16,1.32,0,1.04-.05,1.66-.16,1.87-.11.21-.35.42-.74.63-.59.31-.88.63-.88.94,0,.41.08,1.02.24,1.83l3.38,18.96,3.51-19.58c.02-.2.03-.4.03-.62,0-.9-.5-1.59-1.5-2.06-.51-.23-.77-.9-.79-2,0-.29,0-.5-.03-.62v-.27c0-.47.35-.71,1.05-.71h6.74c.47,0,.77.08.91.25.14.17.21.53.21,1.07,0,.18-.01.35-.03.53l-.09,1.15c-.08.45-.39.85-.94,1.21-.55.35-.9.95-1.06,1.79l-7.09,38.83c-.28,1.53-.5,2.44-.68,2.74-.18.29-.5.44-.97.44h-4.94c-.53,0-.86-.56-1-1.68-.02-.22-.04-.38-.06-.5l-3.73-20.75-3.71,21.1c-.14.84-.29,1.36-.44,1.54-.16.19-.41.28-.76.28h-5.15c-.59,0-1.01-1.03-1.26-3.09-.04-.37-.08-.66-.12-.85l-7.03-38.06c-.16-.8-.57-1.39-1.24-1.76-.55-.29-.82-.73-.82-1.29v-2.27c0-.45.27-.68.82-.68h11.65c.39,0,.67.1.83.31.15.21.23.68.23,1.42,0,.84-.03,1.37-.09,1.59-.06.22-.24.46-.55.74-.39.37-.58.75-.58,1.14,0,.45.06,1.01.18,1.68l3.73,19.86,2.31-12.83Z"/>
    <path class="cls-1" d="m174.08,244.14h-7.33l-.34,2.71c0,.06-.02.14-.06.26-.17.57-.25,1.08-.25,1.53,0,.71.46,1.3,1.37,1.8.49.25.79.52.91.79.12.27.17.73.17,1.35,0,.8-.04,1.29-.13,1.46-.09.17-.3.25-.63.25h-7.74c-.43,0-.64-.45-.64-1.35,0-1.08.34-1.95,1.03-2.62.65-.61,1.02-1.25,1.12-1.94l5.45-34.62c.1-.53.15-.99.15-1.38,0-.61-.42-1.15-1.27-1.62-.39-.24-.59-.76-.59-1.56,0-1.08.06-1.75.18-2,.12-.26.43-.38.94-.38h11.23c.68,0,1.17.32,1.44.97.27.65.55,2.06.82,4.23.12.84.24,1.68.35,2.5l4.83,32.32c.23,1.57.81,2.77,1.74,3.59.25.22.42.39.5.51.08.13.12.52.12,1.16,0,1-.07,1.61-.21,1.84-.14.22-.43.34-.88.34h-13.06c-.39,0-.59-.37-.59-1.12,0-.94.05-1.53.15-1.77.1-.23.38-.51.85-.82.68-.43,1.02-.98,1.02-1.65s-.21-2.28-.64-4.79Zm-3.52-26.37l-3.32,22.99h6.54l-3.22-22.99Z"/>
    <path class="cls-1" d="m202.21,250.96h1.68c.86,0,1.5-.34,1.91-1.03.41-.69.95-2.27,1.62-4.77.24-.96.52-1.54.85-1.75.33-.21.9-.31,1.71-.31.88,0,1.45.07,1.71.22.25.15.38.42.38.81,0,.28-.05.72-.15,1.32l-1.03,7.03c-.12.72-.27,1.21-.46,1.44-.19.24-.56.35-1.13.35h-19.35c-.82,0-1.24-.51-1.24-1.53,0-.78.05-1.29.16-1.52.11-.22.34-.4.69-.51,1.12-.35,1.68-1.38,1.68-3.09v-34.94c0-.73-.35-1.25-1.06-1.56-.61-.25-.98-.54-1.12-.85-.14-.31-.21-.83-.21-1.56,0-.86.06-1.4.18-1.6.12-.21.43-.31.94-.31h13.56c.51,0,.86.12,1.04.37.19.25.28.91.28,1.99,0,.65-.06,1.08-.19,1.31-.13.22-.45.43-.98.6-.98.33-1.47.98-1.47,1.94v37.94Z"/>
    <path class="cls-1" d="m226.68,250.96h1.68c.86,0,1.5-.34,1.91-1.03.41-.69.95-2.27,1.62-4.77.24-.96.52-1.54.85-1.75.33-.21.9-.31,1.71-.31.88,0,1.45.07,1.71.22.25.15.38.42.38.81,0,.28-.05.72-.15,1.32l-1.03,7.03c-.12.72-.27,1.21-.46,1.44-.19.24-.56.35-1.13.35h-19.35c-.82,0-1.23-.51-1.23-1.53,0-.78.05-1.29.16-1.52.11-.22.34-.4.69-.51,1.12-.35,1.68-1.38,1.68-3.09v-34.94c0-.73-.35-1.25-1.06-1.56-.61-.25-.98-.54-1.12-.85-.14-.31-.21-.83-.21-1.56,0-.86.06-1.4.18-1.6.12-.21.43-.31.94-.31h13.56c.51,0,.86.12,1.04.37.19.25.28.91.28,1.99,0,.65-.06,1.08-.19,1.31-.13.22-.46.43-.99.6-.98.33-1.47.98-1.47,1.94v37.94Z"/>
  </g>
  <line class="cls-3" x1="238.53" y1="324.03" y2="324.03"/>
  <g>
    <g>
      <path class="cls-2" d="m109.89,337c0,4.88-3.95,8.83-8.83,8.83s-8.83-3.96-8.83-8.83,3.95-8.83,8.83-8.83,8.83,3.96,8.83,8.83Z"/>
      <path class="cls-2" d="m109.49,345.12c0,.73-3.77,1.32-8.43,1.32s-8.43-.59-8.43-1.32,3.77-1.32,8.43-1.32,8.43.59,8.43,1.32Z"/>
      <circle class="cls-2" cx="118.52" cy="337" r="8.83"/>
      <path class="cls-2" d="m126.95,345.12c0,.73-3.77,1.32-8.43,1.32s-8.43-.59-8.43-1.32,3.77-1.32,8.43-1.32,8.43.59,8.43,1.32Z"/>
      <circle class="cls-2" cx="135.99" cy="337" r="8.83"/>
      <circle class="cls-2" cx="109.59" cy="322.38" r="8.83"/>
      <circle class="cls-2" cx="127.05" cy="322.38" r="8.83"/>
      <circle class="cls-2" cx="118.32" cy="307.96" r="8.83"/>
      <path class="cls-2" d="m144.42,345.12c0,.73-3.77,1.32-8.43,1.32s-8.43-.59-8.43-1.32,3.77-1.32,8.43-1.32,8.43.59,8.43,1.32Z"/>
    </g>
    <g>
      <path class="cls-1" d="m80.88,308.01c-.74.26-1.38.38-1.9.38-.26,0-.39-.14-.39-.42v-.5c0-.19.04-.34.11-.43.08-.1.26-.2.56-.32.4-.16.94-.5,1.62-1.01.69-.5,1.36-1.18,2.01-2.03.51-.65.8-1.01.9-1.06.09-.05.25-.08.47-.08h1.03v17.98c0,.18.14.34.42.48.24.12.39.24.44.37.05.13.08.47.08,1.01,0,.22-.14.32-.43.32h-5.69c-.24,0-.39-.04-.44-.11-.06-.07-.08-.25-.08-.55,0-.41.02-.67.07-.77.04-.1.22-.19.51-.29.46-.14.69-.34.69-.61v-12.39Z"/>
      <path class="cls-1" d="m96.67,306.66h-5.19c-.41,0-.72.27-.95.82-.12.27-.22.47-.3.6-.08.13-.49.19-1.22.19-.26,0-.39-.1-.39-.29v-.14l.36-4.21c.03-.35.1-.56.19-.64.09-.08.32-.12.68-.12h9.53c.18,0,.29.01.33.04.04.03.06.11.06.25v.53c0,.23-.12.57-.35,1.02-.56,1.13-1.23,2.96-2.01,5.48-.78,2.52-1.17,5.27-1.17,8.24,0,1.23.05,1.95.13,2.17.09.23.27.41.54.56.18.09.26.32.26.68,0,.45-.02.7-.06.77-.04.07-.17.1-.39.1h-5.28c-.21,0-.35-.03-.41-.1-.06-.07-.09-.28-.09-.62,0-.37.02-.59.07-.69.04-.1.18-.2.4-.31.15-.07.24-.18.29-.33.04-.14.06-.39.06-.74,0-1.07.25-2.52.76-4.35.5-1.83,1.22-3.6,2.16-5.3l1.98-3.63Z"/>
    </g>
    <g>
      <path class="cls-1" d="m145.84,315.54h1.06c.26,0,.44.05.52.14.08.09.12.27.12.55v.73c0,.22-.03.36-.1.44-.07.07-.22.11-.47.11h-1.13v2.34c0,.55.24.96.71,1.2.26.13.39.36.39.7v.56c0,.18-.03.3-.1.35-.07.05-.22.07-.46.07h-5.23c-.25,0-.4-.04-.46-.13-.06-.09-.08-.38-.08-.87,0-.3.12-.52.37-.66.31-.18.47-.43.47-.76v-2.79h-4.92c-.26,0-.42-.03-.47-.09-.05-.06-.08-.2-.08-.43v-1.44c0-.15,0-.27.04-.36.02-.08.2-.39.53-.92l6.98-11.17c.12-.2.28-.33.45-.4.18-.07.5-.11.98-.11s.72.03.78.08c.07.06.1.2.1.44v12.44Zm-4.39-6.09l-3.82,6.09h3.82v-6.09Z"/>
      <path class="cls-1" d="m151,318.99h6.23c.28,0,.5-.1.66-.32.16-.21.3-.61.42-1.19.05-.24.13-.4.24-.48.11-.08.33-.12.68-.12.51,0,.77.11.77.33,0,.08-.01.16-.04.26-.04.22-.13.76-.26,1.6-.15.92-.3,1.72-.44,2.41-.14.68-.25,1.06-.32,1.13-.07.07-.27.1-.58.1h-9.8v-2.91c0-.41.35-.92,1.05-1.54.35-.31,1.15-1.26,2.41-2.84,1.26-1.58,2.08-2.87,2.45-3.88.38-1,.56-2.34.56-4.01,0-1.4-.14-2.3-.41-2.7-.27-.4-.66-.6-1.16-.6-.38,0-.68.11-.89.32-.22.22-.32.5-.32.84,0,.2.02.44.06.72.05.37.07.73.07,1.08,0,.75-.17,1.34-.52,1.75-.34.41-.78.62-1.31.62-.56,0-1.01-.23-1.34-.67-.33-.45-.5-.99-.5-1.61,0-1.31.49-2.42,1.47-3.34.97-.91,2.29-1.37,3.92-1.37s3.04.52,4.11,1.58c1.07,1.05,1.61,2.42,1.61,4.09,0,.92-.19,1.81-.57,2.66-.38.85-.9,1.6-1.56,2.26-.66.66-1.62,1.49-2.89,2.48-1.74,1.35-3.01,2.46-3.8,3.34Z"/>
    </g>
    <g>
      <path class="cls-1" d="m123.91,310.57c-1.96,3.11-6.07,4.04-9.18,2.08-3.11-1.96-4.04-6.07-2.07-9.18,1.96-3.11,6.07-4.04,9.18-2.07s4.04,6.07,2.08,9.18Z"/>
      <path class="cls-2" d="m124.52,312.57c-2.13,3.37-6.59,4.38-9.96,2.25-3.37-2.13-4.38-6.59-2.25-9.96,2.13-3.37,6.59-4.38,9.96-2.25,3.37,2.13,4.38,6.59,2.25,9.96Z"/>
    </g>
    <g>
      <path class="cls-1" d="m115.08,324.9c-1.96,3.11-6.07,4.04-9.18,2.08-3.11-1.96-4.04-6.07-2.07-9.18,1.96-3.11,6.07-4.04,9.18-2.07,3.11,1.96,4.04,6.07,2.08,9.18Z"/>
      <path class="cls-2" d="m115.69,326.9c-2.13,3.37-6.59,4.38-9.96,2.25-3.37-2.13-4.38-6.59-2.25-9.96,2.13-3.37,6.59-4.38,9.96-2.25,3.37,2.13,4.38,6.59,2.25,9.96Z"/>
    </g>
    <g>
      <path class="cls-1" d="m132.41,324.9c-1.96,3.11-6.07,4.04-9.18,2.08-3.11-1.96-4.04-6.07-2.07-9.18,1.96-3.11,6.07-4.04,9.18-2.07s4.04,6.07,2.08,9.18Z"/>
      <path class="cls-2" d="m133.02,326.9c-2.13,3.37-6.59,4.38-9.96,2.25-3.37-2.13-4.38-6.59-2.25-9.96,2.13-3.37,6.59-4.38,9.96-2.25,3.37,2.13,4.38,6.59,2.25,9.96Z"/>
    </g>
    <g>
      <path class="cls-1" d="m106.58,339.57c-1.96,3.11-6.07,4.04-9.18,2.08-3.11-1.96-4.04-6.07-2.07-9.18,1.96-3.11,6.07-4.04,9.18-2.07,3.11,1.96,4.04,6.07,2.08,9.18Z"/>
      <path class="cls-2" d="m107.19,341.57c-2.13,3.37-6.59,4.38-9.96,2.25-3.37-2.13-4.38-6.59-2.25-9.96,2.13-3.37,6.59-4.38,9.96-2.25,3.37,2.13,4.38,6.59,2.25,9.96Z"/>
    </g>
    <g>
      <path class="cls-1" d="m123.91,339.57c-1.96,3.11-6.07,4.04-9.18,2.08-3.11-1.96-4.04-6.07-2.07-9.18,1.96-3.11,6.07-4.04,9.18-2.07s4.04,6.07,2.08,9.18Z"/>
      <path class="cls-2" d="m124.52,341.57c-2.13,3.37-6.59,4.38-9.96,2.25-3.37-2.13-4.38-6.59-2.25-9.96,2.13-3.37,6.59-4.38,9.96-2.25,3.37,2.13,4.38,6.59,2.25,9.96Z"/>
    </g>
    <g>
      <path class="cls-1" d="m141.58,339.57c-1.96,3.11-6.07,4.04-9.18,2.08-3.11-1.96-4.04-6.07-2.07-9.18,1.96-3.11,6.07-4.04,9.18-2.07s4.04,6.07,2.08,9.18Z"/>
      <path class="cls-2" d="m142.19,341.57c-2.13,3.37-6.59,4.38-9.96,2.25-3.37-2.13-4.38-6.59-2.25-9.96,2.13-3.37,6.59-4.38,9.96-2.25,3.37,2.13,4.38,6.59,2.25,9.96Z"/>
    </g>
  </g>
</svg>