<?xml version="1.0" encoding="UTF-8"?>
<svg id="Image" xmlns="http://www.w3.org/2000/svg" viewBox="0 0 222.75 165">
  <defs>
    <style>
      .cls-1 {
        fill: #efefef;
      }
    </style>
  </defs>
  <path class="cls-1" d="m44.85,165c0-16.61,0-33.22.01-49.83,0-.7-.19-1.17-.72-1.68-3.04-2.94-6.03-5.94-9.03-8.93-1.02-1.02-1.02-1.48-.14-2.62,2.73-3.55,5.45-7.11,8.2-10.64,2.64-3.38,5.33-6.73,7.99-10.09.19-.24.36-.48.59-.79-.49-.16-.88-.3-1.42-.48.67-.7,1.24-1.34,1.86-1.92,4.77-4.54,8.96-9.59,12.94-14.82.22-.29.18-.76.3-1.13.1-.31.2-.66.41-.9,3.66-4.18,7.34-8.35,11.06-12.57-.43-.41-.67-.63-1.18-1.12.66-.54,1.38-1,1.94-1.61,2.58-2.82,5.4-5.49,7.58-8.6,1.6-2.28,3.44-4.3,5.15-6.46,1.76-2.22,3.51-4.44,5.27-6.66.4-.51.8-1.04,1.18-1.56.24-.33.66-.67.04-1.07-.05-.03.08-.51.24-.66,5.13-5.03,10.28-10.05,15.43-15.06.83-.81,1.18-.74,2.01.07,3,2.94,6.03,5.85,9.04,8.78,2.12,2.06,4.23,4.12,6.34,6.2.14.14.32.46.27.52-.57.69.05,1.08.38,1.5,3.26,4.05,6.55,8.06,9.78,12.13,1.06,1.33,1.83,2.89,2.94,4.17,2.34,2.7,4.81,5.28,7.22,7.93.16.17.33.57.25.66-.48.56-.06.95.24,1.31,3.32,3.99,6.66,7.97,9.98,11.96.28.34.42.79.63,1.18.23.44.4.91.68,1.3,4.18,5.67,8.66,11.08,13.85,15.86.13.12.24.28.39.45-.33.17-.62.32-1.05.54,6.05,7.81,12.06,15.56,18.13,23.41-.31.2-.59.38-.86.56-.83.57-1.74,1.06-2.47,1.75-2.62,2.48-5.17,5.04-7.75,7.56-.18.17-.34.41-.55.5-1.19.45-1.13,1.41-1.13,2.43.02,16.14.01,32.29.01,48.43h-11.96c0-1.09,0-2.18,0-3.26,0-20.28,0-40.56.01-60.83,0-.75-.14-1.37-.62-1.97-.99-1.24-1.9-2.54-2.86-3.8-12.92-17.21-25.84-34.42-38.76-51.62-3.98-5.3-7.95-10.59-11.93-15.89-.83-1.1-1.72-1.11-2.53-.03-.83,1.09-1.65,2.18-2.47,3.28-17.44,23.22-34.89,46.45-52.34,69.67-.43.58-.63,1.14-.63,1.87.02,20.87.01,41.74.01,62.61h-11.96Z"/>
  <path class="cls-1" d="m112.31,165h-1.68c-.05-2.05-.14-4.1-.15-6.15,0-17.91,0-35.82-.02-53.73,0-.57-.24-1.21-.57-1.68-.67-.97-1.47-1.84-2.21-2.77-6.12-7.73-12.23-15.46-18.35-23.19-.18-.23-.37-.45-.58-.71-7.63,9.85-15.17,19.58-22.69,29.29-1.09-.75-2-1.36-3.03-2.07-.04.48-.09.75-.09,1.02,0,16.01-.02,32.03-.02,48.04,0,3.98.03,7.96.04,11.94h-1.68c0-19.16-.02-38.32.01-57.48,0-5.7-.62-3.85,2.77-8.37,7.63-10.17,15.26-20.36,22.9-30.53,7.32-9.75,14.65-19.49,21.97-29.24,1.38-1.83,2.73-3.68,4.16-5.61.34.38.66.67.91,1,.89,1.16,1.75,2.34,2.63,3.5,5.55,7.38,11.12,14.76,16.66,22.14,10.42,13.88,20.85,27.75,31.25,41.65.29.39.47.96.47,1.44,0,20.5,0,41-.02,61.49h-1.68c.01-.28.04-.56.04-.84,0-8.06-.02-16.11-.03-24.17,0-11.54,0-23.08,0-34.62,0-.44-.07-.87-.12-1.56-1.26.82-2.28,1.49-3.35,2.2-7.51-9.7-14.98-19.35-22.53-29.11-.2.27-.29.39-.38.51-6.78,8.6-13.55,17.2-20.36,25.77-.52.66-.74,1.27-.73,2.09.02,19.91.01,39.82.01,59.73h-1.87c.04-.33.12-.66.12-1,0-5.26-.03-10.51-.03-15.77,0-14.37,0-28.74-.03-43.11,0-.64-.25-1.28-.41-2.05.43-.51,1-1.16,1.54-1.83,3.23-4.03,6.45-8.06,9.67-12.09,4.48-5.61,8.96-11.23,13.44-16.85.87-1.09.82-1.31-.47-2.12-.81.74-1.67,1.46-2.44,2.26-.48.5-.71.39-1.07-.1-.91-1.23-1.85-2.42-2.79-3.62-5.81-7.42-11.62-14.84-17.42-22.26-.34-.43-.67-.87-1.04-1.36-7.38,9.31-14.68,18.54-22.06,27.85-.91-1.12-1.72-2.1-2.53-3.1-1.64,1.75-1.28,1.48-.16,2.89,2.15,2.7,4.36,5.36,6.52,8.05,6.01,7.49,12.01,14.98,17.88,22.31-.16.69-.39,1.25-.39,1.81-.02,18.63-.02,37.26-.02,55.89,0,1.4,0,2.79,0,4.19Z"/>
  <path class="cls-1" d="m69.14,165c-.08-15.33-.17-30.65-.24-45.98-.02-3.23.03-6.47,0-9.7,0-1.01.28-1.85.89-2.66,5.51-7.44,11-14.91,16.49-22.36.31-.42.62-.84,1.01-1.37,1.24,1.65,2.43,3.19,3.58,4.75,4.68,6.36,9.33,12.74,14.02,19.09.59.79.85,1.6.85,2.58.02,17.35.06,34.7.11,52.05,0,1.2.07,2.4.1,3.6h-1.68c-.06-5.83-.13-11.66-.19-17.52h-15.88v17.52h-1.49c-.05-5.56-.12-11.13-.13-16.69,0-.78-.22-.92-.93-.91-4.67.03-9.34.03-14.01,0-.7,0-.96.13-.96.92.04,5.22,0,10.45,0,15.67,0,.33.09.67.13,1h-1.68Zm19.14-45.15v25.59c.54,0,1,0,1.46,0,4.45-.01,8.9-.05,13.35,0,.9,0,1.09-.27,1.09-1.1-.05-5.25-.05-10.51-.08-15.76-.01-2.64-.03-5.28-.03-7.93,0-.43.02-.81-.59-.8-5.04.01-10.08,0-15.19,0Zm-1.79,25.57c.07-.22.1-.28.1-.34-.01-7.96-.02-15.92-.04-23.88,0-1.35,0-1.36-1.36-1.36-4.51,0-9.03.02-13.54-.02-.81,0-1.05.19-1.04,1.03.04,7.87.05,15.73.02,23.6,0,.82.29.98,1.03.97,4.64-.03,9.28-.01,13.92-.01.3,0,.61,0,.92,0Zm9.73-47.75c-.25.41-.38.66-.55.88-2.33,3.07-4.69,6.12-7,9.2-.26.34-.44.83-.45,1.25-.04,2.7-.02,5.41-.02,8.11,0,.27.04.53.06.76h15.72c.03-.49.07-.92.07-1.35-.01-2.33.02-4.67-.08-6.99-.03-.72-.3-1.52-.7-2.13-.98-1.51-2.11-2.92-3.17-4.38-1.22-1.68-2.44-3.36-3.89-5.37Zm-17.93.19c-.27.32-.45.51-.61.73-2.18,2.99-4.38,5.96-6.51,8.99-.4.57-.62,1.37-.63,2.07-.05,2.45.04,4.91.04,7.37,0,.67.18.91.9.9,4.55-.04,9.09-.02,13.64-.02.46,0,.92,0,1.33,0,.08-.2.14-.28.14-.37,0-2.7.03-5.41-.03-8.11-.01-.51-.25-1.1-.57-1.52-2.09-2.79-4.22-5.54-6.35-8.3-.41-.54-.84-1.07-1.36-1.75Zm8.87-12.31c-.21.37-.32.63-.48.85-2.3,3.14-4.59,6.28-6.92,9.39-.44.59-.41.98.04,1.54,1.63,2,3.21,4.04,4.81,6.07.86,1.09,1.7,2.19,2.58,3.32.17-.15.28-.22.35-.31,2.44-3.11,4.87-6.22,7.31-9.32.36-.46.28-.8-.04-1.24-1.46-1.97-2.88-3.98-4.34-5.96-1.01-1.37-2.06-2.7-3.31-4.34Z"/>
  <path class="cls-1" d="m120.72,165c0-5.72-.01-11.44-.03-17.16-.03-12.84-.07-25.68-.12-38.52,0-.94.24-1.72.81-2.49,5.76-7.8,11.49-15.63,17.23-23.45.09-.12.21-.22.38-.4,2.11,2.83,4.21,5.6,6.26,8.41,3.8,5.19,7.59,10.39,11.34,15.62.41.57.72,1.35.72,2.03.1,17.97.15,35.94.2,53.92,0,.68.01,1.37.02,2.05h-1.68c-.01-5.53-.05-11.07-.02-16.6,0-.81-.26-.99-1-.98-4.36.02-8.71,0-13.07,0-.58,0-1.17,0-1.97,0v17.58h-1.49v-17.59c-2.31,0-4.48,0-6.65,0-2.8,0-5.6,0-8.4,0-.43,0-.87-.1-.87.61.03,5.66.03,11.31.03,16.97h-1.68Zm17.48-19.59c.03-.22.06-.34.06-.46,0-8.11,0-16.22.03-24.33,0-.76-.42-.76-.95-.76-4.76,0-9.52,0-14.28-.02-.67,0-.83.24-.82.88.05,1.77.02,3.54.03,5.31.03,6.18.07,12.37.09,18.55,0,.47-.02.85.65.85,5.04-.02,10.07,0,15.19,0Zm17.51-25.48h-15.74c-.03.18-.07.33-.07.48-.02,8.05-.03,16.1-.07,24.16,0,.72.28.87.95.86,3.27-.03,6.54,0,9.81,0,1.68,0,3.35,0,5.12,0v-25.5Zm-17.43-2c0-2.73-.03-5.33.01-7.94.01-.93-.28-1.66-.85-2.38-2.31-2.97-4.58-5.96-6.87-8.95-.18-.23-.39-.45-.76-.86-.2.31-.32.53-.46.73-2.21,3.04-4.45,6.06-6.61,9.14-.36.51-.53,1.26-.54,1.9-.05,2.3,0,4.6,0,6.9,0,1.46,0,1.45,1.45,1.45,4.82,0,9.64,0,14.62,0Zm17.33-.02c.04-.24.09-.42.09-.6.01-2.8.04-5.59,0-8.39,0-.37-.21-.78-.43-1.09-2.28-3.14-4.58-6.27-6.87-9.4-.13-.17-.22-.37-.34-.59-.33.31-.5.44-.63.61-2.44,3.18-4.88,6.36-7.3,9.55-.18.23-.31.56-.31.84-.01,2.8.01,5.59.02,8.39,0,.52.21.69.73.68,4.97-.02,9.95-.01,15.03-.01Zm-16.6-32.18c-.32.34-.55.54-.73.78-2.25,3.05-4.46,6.13-6.75,9.15-.56.73-.47,1.18.05,1.84,2.29,2.87,4.53,5.77,6.79,8.66.15.19.24.43.35.62.3-.22.39-.26.44-.33,2.47-3.16,4.95-6.3,7.39-9.49.16-.21.11-.78-.06-1.02-1.17-1.68-2.39-3.33-3.61-4.98-1.25-1.7-2.51-3.39-3.86-5.22Z"/>
  <path class="cls-1" d="m59.99,165h-1.68c.03-1.06.08-2.11.08-3.17,0-19.48,0-38.97-.01-58.45,0-.98.25-1.81.85-2.59,1.91-2.49,3.78-5.01,5.67-7.53,10-13.3,19.99-26.6,29.99-39.9,5.79-7.71,11.58-15.42,17.37-23.12.32-.43.73-.8,1.12-1.22,2.14,2.8,4.21,5.48,6.24,8.18,7.91,10.55,15.8,21.11,23.7,31.67,8.03,10.73,16.07,21.45,24.09,32.2.34.46.58,1.12.58,1.69.03,19.56.02,39.13.02,58.69,0,1.18,0,2.36,0,3.54h-1.68c0-20.38-.02-40.75,0-61.13,0-1.1-.29-1.96-.94-2.82-15.19-20.17-30.37-40.36-45.55-60.54-2.27-3.02-4.51-6.07-6.74-9.07-.16.27-.33.67-.59,1.01-1.02,1.37-2.07,2.73-3.1,4.09-9.09,12.07-18.19,24.15-27.28,36.23-6.96,9.24-13.9,18.5-20.89,27.72-.89,1.17-1.29,2.36-1.29,3.85.04,20.22.02,40.44.02,60.66Z"/>
  <path class="cls-1" d="m183.92,164.17v-10.29h23.07v10.29h-23.07Z"/>
  <path class="cls-1" d="m27.6,114.3v10.31H4.58v-10.31h23.03Z"/>
  <path class="cls-1" d="m197.39,124.62v-10.33h23.04v10.33h-23.04Z"/>
  <path class="cls-1" d="m18.02,126.96h23v10.35h-23v-10.35Z"/>
  <path class="cls-1" d="m207.02,127.01v10.29h-23.07v-10.29h23.07Z"/>
  <path class="cls-1" d="m27.59,150.76H4.55v-10.32h23.05v10.32Z"/>
  <path class="cls-1" d="m220.47,140.45v10.28h-23.06v-10.28h23.06Z"/>
  <path class="cls-1" d="m41.03,164.22h-23.01v-10.35h23.01v10.35Z"/>
  <path class="cls-1" d="m41.05,124.63h-11.09v-10.32h11.09v10.32Z"/>
  <path class="cls-1" d="m195.01,124.65h-11.05v-10.35h11.05v10.35Z"/>
  <path class="cls-1" d="m41.08,140.45v10.29h-11.11v-10.29h11.11Z"/>
  <path class="cls-1" d="m183.94,140.42h11.09v10.32h-11.09v-10.32Z"/>
  <path class="cls-1" d="m112.98,95.74c-.89-1.14-1.72-2.17-2.54-3.22-4.83-6.25-9.65-12.5-14.51-18.73-.59-.75-.55-1.2.05-1.95,4.22-5.34,8.38-10.73,12.57-16.1,1.45-1.86,2.95-3.68,4.47-5.58.18.17.35.29.48.44,5.63,7.24,11.26,14.48,16.9,21.72.34.43.28.72-.04,1.13-4.19,5.37-8.35,10.76-12.52,16.14-1.39,1.79-2.78,3.59-4.18,5.38-.18.24-.39.45-.67.77Zm.05-22.08c-2.47,3.15-4.86,6.16-7.21,9.22-.16.21-.1.78.08,1.02,1.37,1.84,2.8,3.65,4.21,5.46.92,1.18,1.86,2.36,2.81,3.57.27-.25.46-.38.59-.54,2.28-2.91,4.54-5.83,6.83-8.74.36-.45.19-.77-.12-1.14-1.07-1.29-2.11-2.61-3.17-3.91-1.31-1.61-2.62-3.22-4.02-4.93Zm8.72,8.08c2.25-2.85,4.46-5.62,6.61-8.42.16-.21.03-.84-.18-1.12-1.3-1.75-2.65-3.45-3.99-5.17-.99-1.26-1.98-2.52-3.04-3.88-2.3,2.97-4.53,5.84-6.73,8.74-.14.18-.08.66.07.88.48.69,1.04,1.31,1.57,1.97,1.88,2.32,3.75,4.63,5.68,7.01Zm-16.98-18.29c-.37.45-.69.82-.99,1.21-1.88,2.4-3.73,4.83-5.65,7.19-.62.77-.63,1.3-.01,2.08,2.02,2.53,3.96,5.11,5.93,7.67.09.11.24.17.4.29,2.39-3.08,4.77-6.1,7.09-9.17.16-.21.03-.82-.17-1.09-1.03-1.36-2.13-2.68-3.21-4.01-1.11-1.37-2.23-2.74-3.4-4.17Zm8.19,7.44c2.38-3,4.65-5.84,6.87-8.71.14-.18.09-.68-.07-.88-2-2.62-4.04-5.21-6.06-7.81-.42-.54-.81-.6-1.25-.02-2.06,2.69-4.14,5.37-6.18,8.08-.16.22-.18.77-.02.98,2.19,2.79,4.42,5.54,6.71,8.37Z"/>
</svg>